# xmcd CD database file
#
# Track frame offsets:
#	150
#	19072
#	42379
#	54807
#	70510
#	92915
#	104326
#	116713
#	127198
#	140373
#	155877
#	166051
#	176614
#	190708
#	204583
#	218363
#	232177
#	244898
#	256699
#	270787
#	283692
#	296647
#	308897
#	321106
#	336328
#
# Disc length: 4682 seconds
#
# Revision: 5
# Processed by: cddbd v1.5.2PL0 Copyright (c) Steve Scherf et al.
# Submitted via: CDex 2.20
#
DISCID=6d124819
DTITLE=Ella Fitzgerald - 100 Songs For A Centennial [CD3]
DYEAR=2017
DGENRE=Jazz
TTITLE0=Let's Call The Whole Thing Off
TTITLE1=In A Mellow Tone
TTITLE2=I Never Had A Chance
TTITLE3=What Will I Tell My Heart
TTITLE4=Summertime
TTITLE5=Little Whlte Lies
TTITLE6=You Hit The Spot
TTITLE7=You Brought A New Kind Of Love To Me
TTITLE8=Let's Face The Music And Dance
TTITLE9=Isn't This A Lovely Day (To Be Caught In The Rain)?
TTITLE10=Puttin' On The Ritz
TTITLE11=You Make Me Feel So Young
TTITLE12=Moonlight Becomes You
TTITLE13=Let's Fall In Love
TTITLE14=My Old Flame
TTITLE15=They All Laughed
TTITLE16=I Can't Be Bothered Now
TTITLE17=My One And Only
TTITLE18=I Got Rhythm
TTITLE19=Stairway To The Stars
TTITLE20=Misty
TTITLE21=Hooray For Love
TTITLE22=Out Of This World
TTITLE23=Come Rain Or Come Shine
TTITLE24=Stella By Starlight
EXTD=YEAR: 2017
EXTT0=
EXTT1=
EXTT2=
EXTT3=
EXTT4=
EXTT5=
EXTT6=
EXTT7=
EXTT8=
EXTT9=
EXTT10=
EXTT11=
EXTT12=
EXTT13=
EXTT14=
EXTT15=
EXTT16=
EXTT17=
EXTT18=
EXTT19=
EXTT20=
EXTT21=
EXTT22=
EXTT23=
EXTT24=
PLAYORDER=
